<svg xmlns="http://www.w3.org/2000/svg" viewBox="0 0 32 32">
<g>
	<g>
		<g>
			<g>
				<path d="M26.5,14.1c1.1,0,1.9,0.9,1.9,1.9c0,1.1-0.9,1.9-1.9,1.9c-1.1,0-1.9-0.9-1.9-1.9
					C24.6,14.9,25.4,14.1,26.5,14.1 M26.5,13.1c-1.6,0-2.9,1.3-2.9,2.9s1.3,2.9,2.9,2.9c1.6,0,2.9-1.3,2.9-2.9S28.1,13.1,26.5,13.1
					L26.5,13.1z"/>
			</g>
		</g>
		<g>
			<g>
				<path d="M16.1,14.1c1.1,0,1.9,0.9,1.9,1.9c0,1.1-0.9,1.9-1.9,1.9c-1.1,0-1.9-0.9-1.9-1.9
					C14.2,14.9,15.1,14.1,16.1,14.1 M16.1,13.1c-1.6,0-2.9,1.3-2.9,2.9s1.3,2.9,2.9,2.9c1.6,0,2.9-1.3,2.9-2.9S17.7,13.1,16.1,13.1
					L16.1,13.1z"/>
			</g>
		</g>
		<g>
			<g>
				<path d="M5.7,14.1c1.1,0,1.9,0.9,1.9,1.9c0,1.1-0.9,1.9-1.9,1.9c-1.1,0-1.9-0.9-1.9-1.9
					C3.8,14.9,4.7,14.1,5.7,14.1 M5.7,13.1c-1.6,0-2.9,1.3-2.9,2.9s1.3,2.9,2.9,2.9c1.6,0,2.9-1.3,2.9-2.9S7.3,13.1,5.7,13.1
					L5.7,13.1z"/>
			</g>
		</g>
	</g>
	<g>
		<rect x="0.7" y="0.7" fill="none" width="30.7" height="30.7"/>
	</g>
</g>
</svg>







