<svg xmlns="http://www.w3.org/2000/svg" viewBox="0 0 32 32">
	<path d="M10.7,11.4c-5.2,0-9.5,4.3-9.5,9.5s4.3,9.5,9.5,9.5c5.2,0,9.5-4.3,9.5-9.5C20.2,15.6,15.9,11.4,10.7,11.4
		z M10.7,29.3c-4.6,0-8.4-3.8-8.4-8.4s3.8-8.4,8.4-8.4s8.4,3.8,8.4,8.4S15.3,29.3,10.7,29.3z"/>
	<path d="M11.6,19.6c0.5-0.7,2.1-3.2,3.6-5.4c-0.2-0.1-0.4-0.3-0.6-0.3l-3.5,5.5c-0.1,0-0.3-0.1-0.3-0.1
		c-0.8,0-1.4,0.7-1.4,1.4c0,0.8,0.7,1.4,1.4,1.4c0.7,0,1.2-0.5,1.4-1.1l6.5,0.1c0-0.1,0-0.3,0-0.5l0,0l-6.5-0.1
		C12.1,20.3,11.8,19.9,11.6,19.6z M10.7,21.6c-0.4,0-0.8-0.3-0.8-0.8s0.3-0.8,0.8-0.8c0.4,0,0.8,0.3,0.8,0.8
		C11.4,21.3,11.1,21.6,10.7,21.6z"/>
	<path d="M28.8,21.6l-2.1-0.9c-0.2-0.1-0.4,0-0.5,0.2c-0.1,0.1,0,0,0,0.1h-0.3c-0.1-0.5-0.2-0.7-0.5-1.1l5.3-5
		c0-0.4,0-0.8,0-1.2l-5.9,5.5c-0.5-0.3-1-0.5-1.5-0.5c-0.2,0-0.5,0.1-0.7,0.1l-3-9.9l11.2-1c0-0.3,0-0.7,0-1l-11.5,1L18,3.5
		c0.9-0.2,1.2-0.6,1.7-0.7C20.6,2.6,22,2.9,22,2.6c0-0.5-0.8-1-1.7-1c-0.8,0.1-1.6,0.2-2.1,0.2c-0.8,0-3.2-0.2-3.2-0.2
		c-0.1,0-0.9-0.1-0.6,1.2c0,0.1,0.8,0.6,2.1,0.7c0.2,0,0.4,0,0.6,0L18.5,8c-0.1,0-1.2,1.7-1.4,1.9l-0.3,0.4l-1.2,1.9
		c0.2,0.1,0.4,0.2,0.6,0.3c0.5-0.8,0.9-1.4,1.2-1.9c0.6-1,1.2-1.4,1.4-1.5l3.1,10c-0.8,0.5-1.3,1.3-1.3,2.3c0,1.5,1.2,2.8,2.8,2.8
		c1.4,0,2.6-1.1,2.7-2.5h1.2h0.1l1.4,0.6c0.2,0.1,0.4,0,0.5-0.2C29.1,21.8,29,21.7,28.8,21.6z M23.4,23.6c-1.2,0-2.2-1-2.2-2.2
		c0-1.2,1-2.2,2.2-2.2c1.2,0,2,0.8,2.2,1.9h-1.6h-0.1c-0.1-0.2-0.3-0.3-0.6-0.3c-0.4,0-0.6,0.3-0.6,0.6c0,0.4,0.3,0.6,0.6,0.6
		c0.3,0,0.5-0.2,0.6-0.4l0,0h1.6C25.5,22.7,24.5,23.6,23.4,23.6z M23.6,21.4c0,0.2-0.1,0.3-0.3,0.3c-0.2,0-0.3-0.1-0.3-0.3
		s0.1-0.3,0.3-0.3C23.5,21.1,23.6,21.2,23.6,21.4z M27.7,21.7c-0.1,0-0.2-0.1-0.2-0.2v-0.1v-0.1c0.1-0.1,0.1-0.2,0.2-0.2
		c0.1,0,0.2,0.1,0.2,0.2C27.9,21.6,27.8,21.7,27.7,21.7z"/>
</svg>



