<svg xmlns="http://www.w3.org/2000/svg" viewBox="0 0 32 32"><path d="M20.076 6c.387 0 .7.386.7.86V9.18H27.3c.387 0 .702.386.702.86v14.433c0 .475-.315.86-.7.86H4.7c-.385.002-.7-.385-.7-.86V10.04c0-.474.315-.86.7-.86h6.642V6.86c0-.474.315-.86.7-.86h8.034m0-1h-8.033c-.94 0-1.7.833-1.7 1.86v1.32H4.7c-.938 0-1.7.833-1.7 1.86v14.433c0 1.028.762 1.86 1.7 1.86H27.3c.94 0 1.7-.832 1.7-1.86V10.04c0-1.027-.76-1.86-1.7-1.86h-5.52V6.86c0-1.027-.762-1.86-1.702-1.86z"/><path d="M16.04 22.987c-3.303 0-5.99-2.686-5.99-5.987s2.688-5.987 5.99-5.987S22.025 13.7 22.025 17s-2.685 5.987-5.987 5.987zm0-10.974c-2.752 0-4.99 2.237-4.99 4.987s2.238 4.987 4.99 4.987c2.75 0 4.986-2.237 4.986-4.987s-2.237-4.987-4.987-4.987z"/><path d="M16 20.38c-.276 0-.5-.224-.5-.5v-5.25c0-.276.224-.5.5-.5s.5.224.5.5v5.25c0 .276-.224.5-.5.5z"/><path d="M18.625 17.755h-5.25c-.276 0-.5-.224-.5-.5s.224-.5.5-.5h5.25c.276 0 .5.224.5.5s-.224.5-.5.5z"/></svg>