<svg xmlns="http://www.w3.org/2000/svg" viewBox="0 0 32 32">
	<path d="M31.1,23.8L31.1,23.8c0-0.1-0.1-0.1-0.1-0.1l0,0c0-0.1-0.1-0.1-0.1-0.1l0,0L27.6,21V7.4
		c0-0.9-0.8-1.7-1.7-1.7H6.1c-0.9,0-1.7,0.8-1.7,1.7V21l-3.3,2.6l0,0C1,23.6,1,23.7,1,23.7l0,0c0,0.1-0.1,0.1-0.1,0.1l0,0
		c0,0.1,0,0.1,0,0.1v0.7c0,0.9,0.8,1.7,1.7,1.7h26.6c0.9,0,1.7-0.8,1.7-1.7V24C31.1,23.9,31.1,23.9,31.1,23.8z M5.3,7.3
		c0-0.4,0.4-0.8,0.8-0.8h19.8c0.4,0,0.8,0.4,0.8,0.8v13.4H5.3V7.3z M5,21.6h22l2.3,1.8H2.7L5,21.6z M30.2,24.6
		c0,0.4-0.4,0.8-0.8,0.8H2.7c-0.4,0-0.8-0.4-0.8-0.8v-0.2h28.3V24.6z"/>
	<path d="M15.7,7c-0.1,0.1-0.1,0.2-0.1,0.3c0,0.1,0.1,0.2,0.1,0.3c0.1,0.1,0.2,0.1,0.3,0.1c0.1,0,0.2-0.1,0.3-0.1
		c0.1-0.1,0.1-0.2,0.1-0.3c0-0.1-0.1-0.2-0.1-0.3C16.2,6.9,15.8,6.9,15.7,7z"/>
</svg>


