<svg xmlns="http://www.w3.org/2000/svg" viewBox="0 0 32 32">
<path d="M28.3,14.1c-0.5,0-1.2,0.1-1.9,0.4c1.6-1.7,3.1-3.5,3.1-5c0-4.6-5.7-7.9-13.5-7.9C8.1,1.5,2.4,4.9,2.4,9.5
	c0,1.5,1.5,3.2,3.1,4.9c-0.7-0.2-1.4-0.3-1.9-0.3c-1.8,0-3.3,1.5-3.3,3.3s1.5,3.3,3.3,3.3c0.2,0,0.5,0,0.7-0.1v6.6
	c0,0.3,0.2,0.5,0.5,0.5h1.9v1.7c0,0.3,0.2,0.5,0.5,0.5h2.5c0.3,0,0.5-0.2,0.5-0.5v-1.7h11.4v1.7c0,0.3,0.2,0.5,0.5,0.5h2.5
	c0.3,0,0.5-0.2,0.5-0.5v-1.7h2c0.3,0,0.5-0.2,0.5-0.5v-6.6c0.2,0.1,0.5,0.1,0.7,0.1c1.8,0,3.3-1.5,3.3-3.3
	C31.6,15.6,30.1,14.1,28.3,14.1z M8.6,19.3h14.8v3.2H8.6V19.3z M16,2.6c7.3,0,12.5,2.9,12.5,6.9c0,1.2-1.8,3.2-3.3,4.7
	c-0.6,0.7-1.3,1.4-1.7,1.9c-0.1,0.1-0.1,0.2-0.1,0.3v1.9H8.6v-1.9c0-0.1,0-0.2-0.1-0.3c-0.5-0.6-1.1-1.2-1.7-1.9
	c-1.5-1.6-3.3-3.6-3.3-4.8C3.4,5.5,8.7,2.6,16,2.6z M9.2,28.8H7.8v-1.2h1.4V28.8z M24.1,28.8h-1.4v-1.2h1.4V28.8z M28.3,19.6
	c-0.3,0-0.7-0.1-1-0.2c-0.2-0.1-0.3-0.1-0.5,0c-0.1,0.1-0.2,0.3-0.2,0.4v6.8H5.4v-6.8c0-0.2-0.1-0.3-0.2-0.4c-0.1-0.1-0.3-0.1-0.5,0
	c-0.3,0.2-0.7,0.2-1,0.2c-1.3,0-2.3-1-2.3-2.3s1-2.3,2.3-2.3c1.3,0,3.7,0.9,3.9,1.8V23c0,0.3,0.2,0.5,0.5,0.5h15.9
	c0.3,0,0.5-0.2,0.5-0.5v-6.1c0.2-0.9,2.6-1.8,3.9-1.8s2.3,1,2.3,2.3C30.6,18.6,29.6,19.6,28.3,19.6z"/>
</svg>