<svg xmlns="http://www.w3.org/2000/svg" viewBox="0 0 32 32"><g><path d="M23.464 6.807H4.014c-.954 0-1.728.774-1.728 1.73v19.448c0 .955.774 1.73 1.73 1.73h19.448c.955 0 1.73-.775 1.73-1.73V8.535c0-.954-.775-1.728-1.73-1.728zm.73 21.178c0 .402-.328.73-.73.73H4.014c-.4 0-.728-.328-.728-.73V8.535c0-.4.327-.728.73-.728h19.448c.402 0 .73.327.73.73v19.448z"/><path d="M7.907 14.936c1.355 0 2.454-1.1 2.454-2.454 0-1.355-1.098-2.454-2.453-2.454-1.355 0-2.454 1.1-2.454 2.454 0 1.355 1.1 2.454 2.454 2.454zm0-3.908c.802 0 1.454.652 1.454 1.454 0 .802-.65 1.454-1.453 1.454-.802 0-1.454-.652-1.454-1.454 0-.802.652-1.454 1.454-1.454zM17.525 18.844c-.165-.236-.423-.39-.71-.422-.036-.004-.073-.006-.11-.006-.248 0-.488.092-.674.26l-1.703 1.554-2.124-3.378c-.183-.29-.503-.468-.846-.468h-.01c-.35.004-.67.188-.848.487l-5.037 8.42c-.186.31-.19.694-.013 1.008.178.313.51.507.87.507h14.84c.373 0 .714-.207.887-.537.172-.33.147-.73-.066-1.035l-4.455-6.39zM6.32 25.804l5.036-8.42 2.76 4.39 2.59-2.358 4.454 6.388H6.32zM28.073 1.787H9.615c-1.18 0-2.14.96-2.14 2.14v.88c0 .277.223.5.5.5.275 0 .5-.223.5-.5v-.88c0-.628.51-1.14 1.14-1.14h18.458c.63 0 1.14.512 1.14 1.14v18.46c0 .628-.51 1.14-1.14 1.14h-.823c-.276 0-.5.224-.5.5s.224.5.5.5h.822c1.18 0 2.14-.96 2.14-2.14V3.926c0-1.18-.96-2.14-2.14-2.14z"/></g></svg>
