<svg xmlns="http://www.w3.org/2000/svg" viewBox="0 0 32 32">
<g>
	<g>
		<g>
			<g>
				<path d="M0.9,12.1L16,18.8l5.1-2.3c0.1-0.1,0.2-0.1,0.2-0.2c0.1-0.1,0.1-0.2,0-0.3c-0.1-0.2-0.3-0.3-0.5-0.2
					L16,18L2.7,12.1L16,6.2l13.3,5.9L24.9,14c-0.1,0.1-0.2,0.1-0.2,0.2c-0.1,0.1-0.1,0.2,0,0.3c0.1,0.2,0.3,0.3,0.5,0.2l5.9-2.6
					L16,5.4L0.9,12.1z"/>
			</g>
			<g>
				<path d="M6.6,15.9c-0.2,0-0.4,0.2-0.4,0.4v6.1c0,1.5,3.4,4.2,9.8,4.2c6.8,0,9.8-2.5,9.8-4.3v-6.1
					c0-0.2-0.2-0.4-0.4-0.4c-0.3,0-0.4,0.2-0.4,0.4v6.1c0,0.9-2.1,3.5-9,3.5c-6.7,0-9-2.8-9-3.5v-6.1C7,16.1,6.8,15.9,6.6,15.9z"/>
			</g>
			<path d="M23.7,18.7v-3.8L17,12.1c-0.1,0-0.1-0.1-0.2-0.1c-0.2,0-0.3,0.1-0.3,0.2c-0.1,0.2,0,0.4,0.2,0.5l6.2,2.6
				v3.3c-0.5,0.2-0.9,0.9-0.9,1.6c0,1,0.5,1.7,1.2,1.7s1.2-0.7,1.2-1.7C24.6,19.6,24.2,18.9,23.7,18.7z"/>
		</g>
	</g>
</g>
</svg>





