<svg xmlns="http://www.w3.org/2000/svg" viewBox="0 0 32 32">
	<path d="M22.2,30.8c-2.3,0-4.3-1.9-4.3-4.3c0-1.2,0.5-2.4,1.5-3.2l-1.9-2.9h-4.2l-2.5,4.4
		c0.8,0.7,1.3,1.6,1.3,2.6c0,1.9-1.5,3.4-3.4,3.4s-3.4-1.5-3.4-3.4c0-1.9,1.5-3.4,3.4-3.4c0.4,0,0.9,0.1,1.3,0.3l2.2-3.8H3.8
		c-0.1,0-0.3-0.1-0.4-0.2c-0.1-0.1-2.2-2.7-2.2-7.2v-0.1c0,0,0,0,0-0.1l1.6-5.9c0-0.1,0.1-0.1,0.1-0.2l0,0L3,6.6l7.3-5.6l0,0
		c0.1,0,0.1-0.1,0.2-0.1h6.1c0.1,0,0.3,0.1,0.4,0.2c0.1,0.1,0.1,0.3,0.1,0.5l-2.9,10.7h4.6c0.9-1.1,5.4-5.7,11.5-5.7
		c0.3,0,0.5,0.3,0.5,0.5c0,0.3-0.3,0.5-0.5,0.5c-4.6,0-8.4,3.1-10,4.6h7.6c0.3,0,0.5,0.3,0.5,0.5v2.8c0,0.1,0,0.1-0.1,0.2
		c-2,4.4-2.6,4.4-2.9,4.4h-6.7l1.5,2.3c0.6-0.3,1.2-0.5,1.9-0.5c2.3,0,4.3,1.9,4.3,4.3S24.5,30.8,22.2,30.8z M20,24.2
		c-0.7,0.6-1,1.5-1,2.3c0,1.7,1.4,3.2,3.2,3.2c1.7,0,3.2-1.4,3.2-3.2s-1.4-3.2-3.2-3.2c-0.4,0-0.9,0.1-1.3,0.3l1.7,2.6
		c0.1,0.1,0.1,0.3,0.1,0.4c0,0.1-0.1,0.3-0.2,0.3c-0.2,0.1-0.6,0.1-0.7-0.1L20,24.2z M8.6,25c-1.3,0-2.3,1.1-2.3,2.3
		c0,1.3,1.1,2.3,2.3,2.3s2.3-1.1,2.3-2.3c0-0.7-0.3-1.3-0.7-1.7L9,27.6c-0.1,0.3-0.5,0.3-0.7,0.2c-0.1-0.1-0.2-0.2-0.3-0.3
		c-0.1-0.1,0-0.3,0.1-0.4l1.1-1.9C9,25.1,8.8,25,8.6,25z M4.1,19.3h21.2c0.3-0.3,1.2-1.9,2-3.6v-2.2h-25
		C2.5,16.6,3.7,18.8,4.1,19.3z M3.7,7.9l-1.2,4.6h9.1L3.7,7.9z M4.3,7l8.4,4.8l-2.5-9.4L4.3,7z M11.2,2.1l2.3,8.8l2.3-8.8
		L11.2,2.1z"/>
</svg>

