<svg xmlns="http://www.w3.org/2000/svg" viewBox="0 0 32 32">
<g>
	<g>
		<g>
			<g>
				<path d="M4.9,17c0,1.4,1.1,2.7,2.5,2.7c1.3,0,2.5-1.2,2.5-2.7c0-1.4-1.1-2.7-2.5-2.7C5.9,14.4,4.9,15.5,4.9,17z
					 M8.9,17c0,1-0.7,1.7-1.6,1.7S5.8,17.9,5.8,17c0-0.9,0.7-1.7,1.6-1.7C8.2,15.3,8.9,16,8.9,17z"/>
				<path d="M5.9,8.8L6,8.7C6.8,7.3,7.7,6,8.4,5.3c0.7-0.8,2.8-1.4,5.7-1.6v-1c-3.5,0.4-5.5,1-6.4,1.9
					C7.5,4.9,7.2,5.2,7,5.6C6.5,6,6,6.8,5.5,7.6L5.4,7.7H2.5c-0.1,0-0.1,0-0.1,0c-0.6,0-1,0.5-1,1.1v1.3c0,0.6,0.5,1.2,1,1.3
					l1.1,0.2l-0.1,0.2c0,0.1-0.1,0.1-0.1,0.2c-0.1,0.1-0.1,0.2-0.1,0.2l-0.2,0.4C1.8,16.4,1.7,20,2.7,23.3v0.1v2.5
					c0,1.2,0.3,1.8,0.9,1.8h3.2c0.5,0,0.9-0.7,0.9-1.8v-1.5h0.2c2.2,0.2,4.3,0.4,6.4,0.4v-1c-2.5-0.1-5.1-0.3-7-0.5l-0.5-0.1v2.7
					c0,0.2,0,0.5-0.1,0.7l-0.1,0.1H3.7v-0.2c0-0.1,0-0.1,0-0.2c0-0.1-0.1-0.3-0.1-0.4v-2.6l-0.1-0.1c-1-3.2-0.9-6.7,0.5-10.5
					l0.1-0.1h0.2c1.5,0.1,4.4,0,6.7-0.2c1-0.1,2.2-0.1,3.2-0.2v-1l-3.5,0.2c-2.2,0.1-4.3,0.2-5.7,0.2H4.7l0.1-0.3
					C5,10.5,5.4,9.7,5.9,8.8z M4,10.5l-0.1,0.1l-1.4-0.3l-0.2-0.2V8.6h2.6L4.8,8.9C4.7,9.1,4.6,9.2,4.6,9.4C4.3,9.8,4.2,10.2,4,10.5
					z"/>
			</g>
			<g>
				<path d="M22.8,9.9c1.3,0,2.5-1.2,2.5-2.7c0-1.4-1.1-2.7-2.5-2.7c-1.4,0.1-2.5,1.2-2.5,2.7
					C20.3,8.6,21.5,9.9,22.8,9.9z M22.8,5.5c0.9,0,1.6,0.7,1.6,1.7s-0.7,1.7-1.6,1.7c-0.9,0-1.6-0.7-1.6-1.7
					C21.2,6.3,22,5.5,22.8,5.5z"/>
				<path d="M23.1,18.9h-0.6c-1.2,0.1-2.2,1-2.2,2.3v5.8c0,1.2,0.9,2.3,2.2,2.3h0.6c1.1,0,2.2-1,2.2-2.3v-5.8
					C25.2,20,24.2,18.9,23.1,18.9z M24.3,27.1c0,0.7-0.6,1.3-1.3,1.3h-0.6c-0.7,0-1.3-0.6-1.3-1.3v-4.6h3.1L24.3,27.1L24.3,27.1z
					 M24.3,21.9h-3.1v-0.7c0-0.7,0.6-1.3,1.3-1.3h0.6c0.7,0,1.3,0.6,1.3,1.3L24.3,21.9L24.3,21.9z"/>
				<path d="M30.5,6h-3.4V5.3c0-0.1-0.1-0.1-0.1-0.1h-0.6c-0.1,0-0.1,0.1-0.1,0.1v2.4c0,0.1,0.1,0.1,0.1,0.1H27
					c0.1,0,0.1-0.1,0.1-0.1V6.9h3.4c0.1,0,0.1-0.1,0.1-0.1V6.2C30.6,6.1,30.6,6,30.5,6z"/>
				<rect x="25.3" y="13.1" fill="#474747" width="1.8" height="0.6"/>
				<path d="M16.6,21.5v-9.1c0-1.5,1.1-2.8,2.6-2.8h1.4c-0.2-0.2-0.4-0.6-0.5-1h-0.9c-1.9,0-3.5,1.6-3.5,3.7v9.1
					c0,2.1,1.5,3.7,3.5,3.7h0.4v-1h-0.4C17.8,24.3,16.6,23,16.6,21.5z"/>
				<path d="M26.4,8.7h-0.9c-0.1,0.4-0.2,0.7-0.5,1h1.4c1.4,0,2.6,1.2,2.6,2.8v9.1c0,1.5-1.1,2.8-2.6,2.8H26v1h0.4
					c1.9,0,3.5-1.6,3.5-3.7v-9.1C29.9,10.4,28.3,8.7,26.4,8.7z"/>
				<path d="M18.4,7.7c0,0.1,0.1,0.1,0.1,0.1h0.6c0.1,0,0.1-0.1,0.1-0.1V5.3c0-0.1-0.1-0.1-0.1-0.1h-0.6
					c-0.1,0-0.1,0.1-0.1,0.1v0.8h-3.4C15,6.1,15,6.2,15,6.2v0.6C15,6.9,15,7,15.1,7h3.4V7.7z"/>
			</g>
		</g>
	</g>
</g>
</svg>





