<svg xmlns="http://www.w3.org/2000/svg" viewBox="0 0 32 32">
<g>
	<g>
		<g>
			<path d="M4.1,22.4L19,25.8l7.4-2.9l0.2-9.5l4.3-3.9L28,10.3l0.7-1.5L14.4,6.3l-2,3.7l-3-3.8L1.1,8.5l0.8,1.1
				L1.1,9.4l3.2,3.4L4.1,22.4z M18.5,25l-0.1,0L4.8,21.8L5,13.1l13.7,3.2L18.5,25z M19.4,24.9l0.2-8.7l6.2-2.5l-0.2,8.7 M18.2,15.6
				L17,15.3L5,12.5l-1.9-2l4.7,1l8.2,1.7l0,0L18.2,15.6z M19.1,15.5l-2.6-3l-3.6-0.7l0-0.7l8.4,1.7l-1.1,1.4L19.1,15.5z M28.3,10.9
				l-2.4,2.1l-1.7,0.7l-3.9,1.6l2-2.5l0.1-0.1l0.1-0.1 M21.8,12.2l-4.9-1l-3.8-0.8L15,7L15,7l12.6,2.3l-0.6,1.3L21.8,12.2z
				 M9.6,11.1L3.1,9.8l-0.8-1l6.8-1.9l2.8,3.6L9.6,11.1z"/>
		</g>
	</g>
</g>
</svg>






