<svg xmlns="http://www.w3.org/2000/svg" viewBox="0 0 32 32">
<g>
	<path d="M17,14c-2.3-1.1-6.7,0-9.8,1.7c-1.7,0.9-4.7,2.9-5,5.5c-0.6,4.2,3,4.7,5.4,5c0.9,0.1,1.9,0.3,2.2,0.6
		c0.3,0.3,0.7,0.7,1.1,1.1c1.1,1.3,2.7,3,4.9,3c0.9,0,1.9-0.3,3-0.9c1.3-0.8,2-3.3,1.9-6.7C20.5,19.7,19.3,15.1,17,14z M18.2,29.2
		c-3.3,1.9-5.1-0.1-6.6-1.9c-0.4-0.5-0.8-0.9-1.2-1.3c-0.6-0.5-1.6-0.6-2.7-0.8c-2.9-0.4-4.9-0.9-4.5-3.9c0.2-1.6,1.8-3.3,4.5-4.7
		c2.4-1.3,5.1-2,7.1-2c0.7,0,1.4,0.1,1.8,0.3c1.6,0.8,3,4.5,3.1,8.6C19.7,26.4,19.2,28.7,18.2,29.2z"/>
	<path d="M14.5,11.1c0.3,0.1,0.6,0.1,0.9,0.1c0.7,0,1.5-0.3,2.2-0.8c0.9-0.7,1.7-1.8,2.1-3.1
		c0.9-2.7,0.1-5.5-1.9-6.1c-1-0.3-2.1-0.1-3.1,0.7c-0.9,0.7-1.7,1.8-2.1,3.1c-0.4,1.3-0.5,2.6-0.2,3.8C12.8,9.9,13.5,10.8,14.5,11.1
		z M13.6,5.3c0.4-1.1,1-2,1.8-2.6C15.9,2.2,16.4,2,16.9,2c0.2,0,0.4,0,0.5,0.1c1.4,0.5,2,2.7,1.2,4.9c-0.4,1.1-1,2-1.8,2.6
		c-0.7,0.6-1.5,0.7-2.1,0.5c-0.6-0.2-1.1-0.8-1.4-1.7C13.2,7.5,13.2,6.4,13.6,5.3z"/>
	<path d="M6.9,14.2c0.1,0,0.3,0,0.4,0c0.8,0,1.7-0.4,2.4-1.1c0.8-0.8,1.3-1.9,1.5-3.1c0.2-1.2,0-2.4-0.5-3.4
		c-0.5-1-1.4-1.7-2.3-1.8c-1-0.1-2,0.2-2.8,1.1C4.7,6.6,4.2,7.7,4,9c-0.2,1.2,0,2.4,0.5,3.4C5.1,13.4,5.9,14,6.9,14.2z M5,9.1
		c0.1-1,0.6-1.9,1.2-2.6C6.7,6,7.3,5.8,7.9,5.8c0.1,0,0.2,0,0.3,0c0.6,0.1,1.2,0.5,1.6,1.3c0.4,0.8,0.6,1.8,0.4,2.8
		c-0.1,1-0.6,1.9-1.2,2.6C8.4,13,7.7,13.3,7,13.2c-0.6-0.1-1.2-0.5-1.6-1.3C5,11.1,4.9,10.1,5,9.1z"/>
	<path d="M23.8,14.9c1.1-0.4,2.1-1.1,2.9-2.2c0.8-1.1,1.3-2.3,1.3-3.4c0.1-1.2-0.4-2.2-1.2-2.8
		c-0.8-0.6-1.9-0.7-3-0.3c-1.1,0.4-2.1,1.1-2.9,2.2c-0.8,1.1-1.3,2.3-1.3,3.4c-0.1,1.2,0.4,2.2,1.2,2.8c0.5,0.4,1.1,0.6,1.8,0.6
		C23,15.1,23.4,15,23.8,14.9z M21.4,13.7c-0.5-0.4-0.8-1.1-0.8-2c0-0.9,0.4-2,1.1-2.8v0c0.7-0.9,1.5-1.5,2.4-1.8
		c0.3-0.1,0.7-0.2,1-0.2c0.4,0,0.8,0.1,1.2,0.4c0.5,0.4,0.8,1.1,0.8,2c0,0.9-0.4,2-1.1,2.8c-0.7,0.9-1.5,1.5-2.4,1.8
		C22.7,14.2,21.9,14.1,21.4,13.7z"/>
	<path d="M29.3,16.5c-0.7-0.7-1.7-1-2.8-0.8c-1.1,0.2-2.2,0.8-3.2,1.7l0,0c-1,0.9-1.6,2-1.9,3
		c-0.3,1.2-0.1,2.2,0.6,2.9c0.5,0.5,1.2,0.8,2.1,0.8c0.2,0,0.5,0,0.7-0.1c1.1-0.2,2.2-0.8,3.2-1.7c1-0.9,1.6-2,1.9-3
		C30.1,18.3,29.9,17.2,29.3,16.5z M28.8,19.2c-0.2,0.9-0.8,1.8-1.6,2.6c-0.8,0.8-1.8,1.3-2.7,1.4c-0.8,0.1-1.5,0-1.9-0.5
		c-0.4-0.4-0.5-1.1-0.3-1.9c0.2-0.9,0.8-1.8,1.6-2.6l0,0c0.8-0.8,1.8-1.3,2.7-1.4c0.2,0,0.4-0.1,0.6-0.1c0.6,0,1,0.2,1.3,0.5
		C28.9,17.7,29,18.4,28.8,19.2z"/>
</g>
</svg>




