<svg xmlns="http://www.w3.org/2000/svg" viewBox="0 0 32 32">
<g>
	<path d="M13.4,5.2c0,0,1.2-0.5,2.5-0.5c0.2,0,0.4,0,0.6,0.1c1.1,0.2,5.3,2.4,7.3,3.5c0.1,0.1,0.2,0.1,0.4,0.1
		l6.7-2.7v-1L24,7.4l-0.1-0.1c-2.8-1.6-6.2-3.3-7.3-3.5c-0.2-0.1-0.5-0.1-0.7-0.1c-1.2,0-2.4,0.4-2.8,0.6H13C12.2,4.4,8.2,5,5.6,6.3
		L5.5,6.3L5.4,6.3C3.1,5.1,1.3,3.7,1.2,3.7c0,0-0.1,0-0.1-0.1v1.2l0,0c0.7,0.6,2.3,1.6,4.2,2.5c0.1,0.1,0.3,0.1,0.4,0
		C7.2,6.5,9.2,6,10.7,5.7l0.6-0.1L10.8,6c-0.4,0.4-0.9,0.8-1.4,1.3c-2,2.1-1.1,3.4-1.1,3.5c0.5,0.6,1.1,0.9,1.9,0.9
		c1.7,0,3.7-1.5,4.2-2h0.1l1.7-0.2l0.1,0.1c1.1,3.6,5.1,5.1,5.9,5.4l0.1,0.1l5,5l0.1,0.1v0.1c0,0.6-0.2,0.9-0.4,1.2
		c-0.4,0.4-1,0.4-1.3,0.4c-0.1,0-0.1,0-0.1,0h-0.1l-4.9-4.5c-0.2-0.2-0.5-0.2-0.7,0.1c-0.1,0.1-0.1,0.2-0.1,0.4s0.1,0.2,0.2,0.3
		l4.8,4.3v0.1c-0.1,0.6-0.2,1.1-0.6,1.4c-0.4,0.4-1,0.5-1.4,0.5h-0.1l-4.6-4.4c-0.2-0.2-0.5-0.2-0.7,0c-0.2,0.2-0.2,0.5,0,0.7
		l4.5,4.3V25c-0.1,0.5-0.3,0.9-0.7,1.1c-0.2,0.2-0.6,0.3-1.1,0.3h-0.1l-0.1-0.1l-4-3.8c-0.2-0.2-0.5-0.2-0.7,0
		c-0.1,0.1-0.1,0.2-0.1,0.4s0.1,0.2,0.1,0.3l3.5,3.4v0.1c-0.1,0.6-0.4,0.7-0.6,0.8c-0.1,0.1-0.2,0.1-0.4,0.1c-0.6,0-1.4-0.4-1.4-0.4
		l-2.1-1.5l0.2-1.9v-0.1c-0.4-1.6-1.4-2-1.8-2.1h-0.1v-0.1c-0.7-1.4-1.7-1.7-2.2-1.7c-0.1,0-0.3,0-0.4,0.1h-0.1L10,19.7
		c-0.4-1.2-1.1-1.5-1.7-1.5c-0.6,0-1.2,0.3-1.6,0.6l-0.1,0.1l-0.1-0.1c-1.2-1.2-2.4-1.2-3.4,0.1L3.1,19l-1.7-1.2v1.2l1.2,0.9L2.5,20
		c-0.2,0.6-0.2,1.2-0.1,1.7c0.4,0.9,1.5,1.5,2.1,1.7h0.1v0.1c0.4,1.7,1.6,2,2.1,2c0.2,0,0.4,0,0.6-0.1h0.1l0.1,0.1
		c0.5,1.1,1.2,1.7,2.1,1.7c0.2,0,0.6-0.1,0.8-0.2l0.1-0.1l0.1,0.1c0.4,0.4,1.1,1,2.1,1.1c0.7,0.1,1.2-0.2,1.4-0.4
		c0.2-0.3,0.4-0.6,0.4-0.9l0.1-0.2l1.7,1.2c0.1,0.1,1,0.6,1.9,0.6c0.3,0,0.6-0.1,0.8-0.1c0.3-0.1,0.7-0.4,0.9-1l0.1-0.1h0.1
		c0.5,0,1.3,0,2-0.5c0.5-0.4,0.9-0.9,1-1.5V25H23c0.6-0.1,1.3-0.2,1.9-0.7c0.4-0.4,0.7-0.9,0.8-1.6v-0.1h0.1c0.6,0,1.3-0.1,1.9-0.6
		c0.6-0.5,0.8-1.2,0.7-2.2v-0.1l2.3-1.1v-1.1l-3,1.5l-4.9-4.9c-0.1-0.1-0.1-0.1-0.2-0.1c-0.2-0.1-4.9-1.6-5.5-5.3
		c-0.1-0.2-0.2-0.4-0.6-0.4l-2.3,0.2c-0.1,0-0.2,0.1-0.2,0.1c-0.6,0.5-2.4,1.9-3.7,1.9c-0.5,0-0.9-0.2-1.1-0.5V10
		c-0.1-0.2-0.2-0.9,1-2.2C12.4,5.7,13.4,5.2,13.4,5.2 M12.9,27.5c-0.1,0-0.1,0-0.2,0c-0.9-0.1-1.5-0.8-1.6-1.1v-0.1
		c-0.2-1.2,0.1-2.6,0.6-3.3c0.2-0.3,0.5-0.4,0.8-0.4l0,0c0.1,0,0.9,0.1,1.2,1.3l0,0l-0.2,2.7v0.1c0,0.1-0.1,0.4-0.2,0.6
		C13.3,27.3,13.2,27.5,12.9,27.5z M9.6,26.5c-0.6,0-1-0.5-1.3-1.5l-0.1-0.2h0.1c-0.1-1.2,1-2.9,1.7-3.7L10,21
		c0.1-0.1,0.3-0.1,0.6-0.1c0.4,0,0.8,0.2,1.1,0.7l0.1,0.1l-0.2,0.1c-0.2,0.1-0.5,0.3-0.7,0.6c-0.7,0.9-1.1,2.4-0.9,3.8v0.1L10,26.3
		C9.9,26.4,9.7,26.5,9.6,26.5z M6.8,24.8c-0.7,0-1.1-0.5-1.2-1.6c-0.2-1,0.4-2.1,0.9-2.7L6.9,20c0.3-0.3,0.9-0.7,1.4-0.7
		c0.4,0,0.7,0.4,0.8,1.1v0.1l-0.1,0.1c-0.6,0.6-1.8,2.4-1.8,4v0.1H7.1C7,24.7,6.9,24.8,6.8,24.8z M4.5,22.5l-0.2-0.1
		c-0.5-0.3-0.8-0.6-0.9-0.9c-0.1-0.3-0.1-0.7,0.1-1.1C3.9,19.5,4.4,19,4.9,19c0.3,0,0.6,0.2,0.9,0.6l0.1,0.1l-0.1,0.1
		c-0.5,0.6-1.1,1.6-1.2,2.6L4.5,22.5z"/>
</g>
</svg>






