<svg xmlns="http://www.w3.org/2000/svg" viewBox="0 0 32 32">
	<path d="M24.661,20.161c-1.577,0-2.959,0.814-3.763,2.042l-9.33-4.721c0.164-0.466,0.27-0.96,0.27-1.482
		c0-0.554-0.114-1.079-0.297-1.57l9.219-4.628c0.804,1.224,2.185,2.036,3.76,2.036c2.485,0,4.5-2.015,4.5-4.5
		c0-2.485-2.015-4.5-4.5-4.5c-2.485,0-4.5,2.015-4.5,4.5c0,0.553,0.114,1.077,0.296,1.567l-9.219,4.628
		C10.293,12.31,8.912,11.5,7.339,11.5c-2.485,0-4.5,2.015-4.5,4.5s2.015,4.5,4.5,4.5c1.606,0,3.005-0.848,3.802-2.114l9.315,4.714
		c-0.181,0.488-0.294,1.01-0.294,1.561c0,2.485,2.015,4.5,4.5,4.5s4.5-2.015,4.5-4.5S27.147,20.161,24.661,20.161z M24.52,3.839
		c1.93,0,3.5,1.57,3.5,3.5c0,1.93-1.57,3.5-3.5,3.5c-1.93,0-3.5-1.57-3.5-3.5C21.02,5.409,22.59,3.839,24.52,3.839z M7.339,19.5
		c-1.93,0-3.5-1.57-3.5-3.5s1.57-3.5,3.5-3.5c1.93,0,3.5,1.57,3.5,3.5S9.269,19.5,7.339,19.5z M24.661,28.161
		c-1.93,0-3.5-1.57-3.5-3.5c0-1.93,1.57-3.5,3.5-3.5s3.5,1.57,3.5,3.5C28.161,26.591,26.591,28.161,24.661,28.161z"/>
</svg>
