<svg xmlns="http://www.w3.org/2000/svg" viewBox="0 0 32 32">
  <path d="M23.483 27.886c-.08 0-.16-.02-.232-.058l-7.183-3.776-7.184 3.776c-.073.04-.153.058-.232.058-.103 0-.206-.032-.293-.096-.154-.11-.23-.3-.2-.49l1.373-7.997-5.812-5.666c-.136-.133-.185-.332-.126-.512.06-.18.215-.313.404-.34l8.032-1.167L15.62 4.34c.084-.17.258-.28.448-.28s.364.11.448.28l3.592 7.278 8.032 1.167c.188.027.345.16.403.34.06.18.01.38-.127.512l-5.812 5.666 1.372 7.998c.032.19-.045.38-.2.49-.086.064-.19.096-.293.096z", "M16.067 4.56l3.708 7.514 8.292 1.205-6 5.848 1.416 8.258-7.416-3.9-7.416 3.9 1.417-8.258-6-5.85 8.292-1.204 3.707-7.514m0-1c-.38 0-.728.216-.897.557l-3.476 7.042-7.77 1.128c-.378.055-.69.32-.808.68-.118.363-.02.76.253 1.026l5.623 5.482-1.328 7.74c-.064.375.09.754.398.978.174.127.38.19.588.19.16 0 .32-.037.466-.114l6.95-3.654 6.952 3.654c.146.077.306.115.465.115.207 0 .414-.064.588-.19.31-.225.463-.604.4-.98l-1.33-7.74 5.625-5.48c.273-.267.37-.664.253-1.026-.118-.363-.43-.627-.807-.682l-7.77-1.128-3.476-7.042c-.168-.34-.516-.558-.897-.558z"/>
</svg>
