<svg xmlns="http://www.w3.org/2000/svg" viewBox="0 0 32 32">
	<path d="M24.736,11.759c-0.589,0.261-1.221,0.437-1.885,0.517c0.678-0.406,1.198-1.049,1.443-1.816
		c-0.634,0.376-1.337,0.649-2.084,0.796c-0.599-0.638-1.452-1.037-2.396-1.037c-1.813,0-3.283,1.47-3.283,3.283
		c0,0.258,0.029,0.508,0.085,0.748c-2.728-0.137-5.147-1.444-6.766-3.43c-0.283,0.485-0.444,1.049-0.444,1.65
		c0,1.139,0.579,2.144,1.46,2.732c-0.538-0.017-1.045-0.165-1.487-0.41c0,0.014,0,0.027,0,0.041c0,1.59,1.131,2.917,2.633,3.219
		c-0.276,0.075-0.565,0.115-0.865,0.115c-0.211,0-0.417-0.02-0.618-0.059c0.418,1.305,1.63,2.253,3.067,2.28
		c-1.124,0.881-2.539,1.405-4.077,1.405c-0.265,0-0.526-0.016-0.783-0.046c1.453,0.931,3.178,1.475,5.032,1.475
		c6.038,0,9.339-5.002,9.339-9.34c0-0.142-0.003-0.284-0.01-0.425C23.739,12.996,24.296,12.418,24.736,11.759z"/>
</svg>
