<svg xmlns="http://www.w3.org/2000/svg" viewBox="0 0 32 32">
	<path d="M16.056,23.789c-1.377,0-2.671-0.352-3.797-0.97L7.91,24.202l1.418-4.182
		c-0.715-1.175-1.127-2.552-1.127-4.024c0-4.305,3.517-7.794,7.855-7.794c4.338,0,7.854,3.489,7.854,7.794
		S20.394,23.789,16.056,23.789z M16.056,9.443c-3.642,0-6.604,2.94-6.604,6.553c0,1.434,0.467,2.762,1.258,3.842l-0.825,2.433
		l2.538-0.807c1.043,0.685,2.292,1.084,3.633,1.084c3.641,0,6.604-2.939,6.604-6.553S19.697,9.443,16.056,9.443L16.056,9.443z
		 M20.022,17.791c-0.048-0.079-0.177-0.127-0.369-0.223c-0.193-0.095-1.14-0.558-1.316-0.621
		c-0.177-0.064-0.305-0.096-0.433,0.095c-0.128,0.191-0.497,0.621-0.61,0.749c-0.112,0.128-0.225,0.144-0.417,0.048
		c-0.192-0.095-0.813-0.297-1.548-0.948c-0.572-0.506-0.959-1.131-1.071-1.323c-0.112-0.191-0.012-0.294,0.084-0.39
		c0.087-0.086,0.193-0.223,0.289-0.335c0.096-0.112,0.128-0.191,0.192-0.319c0.064-0.127,0.032-0.239-0.016-0.335
		c-0.048-0.095-0.433-1.036-0.594-1.418c-0.16-0.382-0.321-0.319-0.433-0.319c-0.112,0-0.241-0.016-0.369-0.016
		c-0.128,0-0.337,0.048-0.514,0.239c-0.176,0.191-0.674,0.654-0.674,1.593c0,0.94,0.69,1.848,0.786,1.976
		c0.096,0.127,1.332,2.119,3.289,2.884c1.958,0.765,1.958,0.51,2.311,0.478c0.353-0.032,1.139-0.462,1.3-0.908
		C20.07,18.253,20.07,17.87,20.022,17.791L20.022,17.791z"/>
</svg>
